<mxfile host="Electron" modified="2024-05-14T02:25:32.761Z" agent="Mozilla/5.0 (Macintosh; Intel Mac OS X 10_15_7) AppleWebKit/537.36 (KHTML, like Gecko) draw.io/24.4.0 Chrome/120.0.6099.109 Electron/28.1.0 Safari/537.36" etag="Y-pBfs5Aanpgcj6THt2Q" version="24.4.0" type="device">
  <diagram name="第 1 页" id="OxbeFJWGNzpkxNDwPbjf">
    <mxGraphModel dx="1030" dy="563" grid="0" gridSize="10" guides="1" tooltips="1" connect="1" arrows="1" fold="1" page="1" pageScale="1" pageWidth="827" pageHeight="1169" math="0" shadow="0">
      <root>
        <mxCell id="0" />
        <mxCell id="1" parent="0" />
        <mxCell id="RTSbEcTVxHyyi7deUstc-5" value="MySQL" style="shape=cylinder3;whiteSpace=wrap;html=1;boundedLbl=1;backgroundOutline=1;size=15;" vertex="1" parent="1">
          <mxGeometry x="102" y="136" width="60" height="80" as="geometry" />
        </mxCell>
        <mxCell id="RTSbEcTVxHyyi7deUstc-6" value="Canal" style="rounded=1;whiteSpace=wrap;html=1;fillColor=#fff2cc;strokeColor=#d6b656;" vertex="1" parent="1">
          <mxGeometry x="244" y="115" width="54" height="122" as="geometry" />
        </mxCell>
        <mxCell id="RTSbEcTVxHyyi7deUstc-7" value="MQ" style="rounded=0;whiteSpace=wrap;html=1;fillColor=#d5e8d4;strokeColor=#82b366;" vertex="1" parent="1">
          <mxGeometry x="396" y="146" width="120" height="60" as="geometry" />
        </mxCell>
        <mxCell id="RTSbEcTVxHyyi7deUstc-8" value="" style="rounded=0;whiteSpace=wrap;html=1;dashed=1;strokeWidth=1;strokeColor=#6c8ebf;fillColor=#dae8fc;verticalAlign=top;" vertex="1" parent="1">
          <mxGeometry x="614" y="66.5" width="140" height="219" as="geometry" />
        </mxCell>
        <mxCell id="RTSbEcTVxHyyi7deUstc-9" value="ES" style="rounded=0;whiteSpace=wrap;html=1;fillColor=#f5f5f5;strokeColor=#666666;fontColor=#333333;" vertex="1" parent="1">
          <mxGeometry x="643" y="93" width="82" height="33" as="geometry" />
        </mxCell>
        <mxCell id="RTSbEcTVxHyyi7deUstc-10" value="MongoDB" style="rounded=0;whiteSpace=wrap;html=1;fillColor=#f5f5f5;strokeColor=#666666;fontColor=#333333;" vertex="1" parent="1">
          <mxGeometry x="643" y="159" width="82" height="33" as="geometry" />
        </mxCell>
        <mxCell id="RTSbEcTVxHyyi7deUstc-11" value=". . . . . ." style="rounded=0;whiteSpace=wrap;html=1;fillColor=#f5f5f5;strokeColor=#666666;fontColor=#333333;" vertex="1" parent="1">
          <mxGeometry x="643" y="225" width="82" height="33" as="geometry" />
        </mxCell>
      </root>
    </mxGraphModel>
  </diagram>
</mxfile>
